HIERARCHY
ROOT Hips
{
	OFFSET 0.000000 0.000000 0.000000
	CHANNELS 6 Xposition Yposition Zposition Xrotation Yrotation Zrotation
	JOINT LeftUpLeg_virtual
	{
		OFFSET 0.000000 0.000000 0.000000
		CHANNELS 3 Xrotation Yrotation Zrotation
		JOINT LeftUpLeg
		{
			OFFSET 15.427100 -6.655098 0.678600
			CHANNELS 3 Xrotation Yrotation Zrotation
			JOINT LeftLeg
			{
				OFFSET 4.081073 -39.591068 13.024000
				CHANNELS 3 Xrotation Yrotation Zrotation
				JOINT LeftFoot
				{
					OFFSET -4.081074 -37.707932 -15.979700
					CHANNELS 3 Xrotation Yrotation Zrotation
					JOINT LeftToeBase
					{
						OFFSET 5.346399 -15.068900 20.645000
						CHANNELS 3 Xrotation Yrotation Zrotation
						JOINT LeftToe_End
						{
							OFFSET 2.754700 0.931300 11.300900
							CHANNELS 3 Xrotation Yrotation Zrotation
							End Site
							{
								OFFSET 0 0 0
							}
						}
					}
				}
			}
		}
	}
	JOINT RightUpLeg_virtual
	{
		OFFSET 0.000000 0.000000 0.000000
		CHANNELS 3 Xrotation Yrotation Zrotation
		JOINT RightUpLeg
		{
			OFFSET -15.569500 -6.655098 0.678600
			CHANNELS 3 Xrotation Yrotation Zrotation
			JOINT RightLeg
			{
				OFFSET -4.081825 -39.591045 13.023800
				CHANNELS 3 Xrotation Yrotation Zrotation
				JOINT RightFoot
				{
					OFFSET 4.081824 -37.707954 -15.979600
					CHANNELS 3 Xrotation Yrotation Zrotation
					JOINT RightToeBase
					{
						OFFSET -5.346400 -15.068900 20.645000
						CHANNELS 3 Xrotation Yrotation Zrotation
						JOINT RightToe_End
						{
							OFFSET -2.754700 0.931300 11.300900
							CHANNELS 3 Xrotation Yrotation Zrotation
							End Site
							{
								OFFSET 0 0 0
							}
						}
					}
				}
			}
		}
	}
	JOINT Spine_virtual
	{
		OFFSET 0.000000 0.000000 0.000000
		CHANNELS 3 Xrotation Yrotation Zrotation
		JOINT Spine
		{
			OFFSET -0.279200 12.230698 -2.892100
			CHANNELS 3 Xrotation Yrotation Zrotation
			JOINT Spine1
			{
				OFFSET -0.232667 10.192268 -1.242267
				CHANNELS 3 Xrotation Yrotation Zrotation
				JOINT Spine1_split
				{
					OFFSET -0.232667 10.192268 -1.242267
					CHANNELS 3 Xrotation Yrotation Zrotation
					JOINT Spine2
					{
						OFFSET -0.232667 10.192268 -1.242267
						CHANNELS 3 Xrotation Yrotation Zrotation
						JOINT Neck_virtual
						{
							OFFSET 0.000000 0.000000 0.000000
							CHANNELS 3 Xrotation Yrotation Zrotation
							JOINT Neck
							{
								OFFSET -0.418800 17.814194 8.416900
								CHANNELS 3 Xrotation Yrotation Zrotation
								JOINT Head
								{
									OFFSET 0.000000 7.031097 3.806800
									CHANNELS 3 Xrotation Yrotation Zrotation
									JOINT HeadTop_End
									{
										OFFSET 0.000000 24.646606 12.978600
										CHANNELS 3 Xrotation Yrotation Zrotation
										End Site
										{
											OFFSET 0 0 0
										}
									}
								}
							}
						}
						JOINT LeftShoulder_virtual
						{
							OFFSET 0.000000 0.000000 0.000000
							CHANNELS 3 Xrotation Yrotation Zrotation
							JOINT LeftShoulder
							{
								OFFSET 8.476499 7.247704 -3.868750
								CHANNELS 3 Xrotation Yrotation Zrotation
								JOINT LeftShoulder_split
								{
									OFFSET 8.476499 7.247704 -3.868750
									CHANNELS 3 Xrotation Yrotation Zrotation
									JOINT LeftArm
									{
										OFFSET 9.308998 -2.777710 0.208600
										CHANNELS 3 Xrotation Yrotation Zrotation
										JOINT LeftForeArm
										{
											OFFSET 29.972298 0.000000 0.000000
											CHANNELS 3 Xrotation Yrotation Zrotation
											JOINT LeftHand
											{
												OFFSET 26.026505 0.000000 0.000000
												CHANNELS 3 Xrotation Yrotation Zrotation
												End Site
												{
													OFFSET 0 0 0
												}
											}
										}
									}
								}
							}
						}
						JOINT RightShoulder_virtual
						{
							OFFSET 0.000000 0.000000 0.000000
							CHANNELS 3 Xrotation Yrotation Zrotation
							JOINT RightShoulder
							{
								OFFSET -7.570500 7.247704 -3.868750
								CHANNELS 3 Xrotation Yrotation Zrotation
								JOINT RightShoulder_split
								{
									OFFSET -7.570500 7.247704 -3.868750
									CHANNELS 3 Xrotation Yrotation Zrotation
									JOINT RightArm
									{
										OFFSET -9.308998 -2.777710 0.208500
										CHANNELS 3 Xrotation Yrotation Zrotation
										JOINT RightForeArm
										{
											OFFSET -29.972300 0.000000 0.000000
											CHANNELS 3 Xrotation Yrotation Zrotation
											JOINT RightHand
											{
												OFFSET -26.026505 0.000000 0.000000
												CHANNELS 3 Xrotation Yrotation Zrotation
												End Site
												{
													OFFSET 0 0 0
												}
											}
										}
									}
								}
							}
						}
					}
				}
			}
		}
	}
}
MOTION
Frames: 11
Frame Time: 0.03333333
-33.528492 38.103951 281.243408 0.000000 0.000000 0.000000 -170.000786 13.636849 -177.623891 -88.534865 -9.160081 47.139534 102.026880 -14.453906 -10.923272 4.933205 -8.848790 7.693600 -0.468319 0.000000 -0.000001 0.000000 0.000000 0.000000 -170.000786 13.636849 -177.623891 -90.508100 26.048207 -31.992828 105.387394 11.870830 11.987581 2.782326 2.012932 -8.042550 -0.706161 0.000015 0.000005 0.000000 0.000000 0.000000 -170.000786 13.636849 -177.623891 16.817083 -3.801789 -8.604126 3.969193 -0.741156 -2.119502 0.000000 0.000000 0.000000 0.000000 0.000000 0.000000 3.979512 -0.739448 -2.101519 0.912695 0.186794 0.154901 -20.090706 -2.727756 8.655180 0.000000 0.000000 0.000000 3.979512 -0.739448 -2.101519 1.384110 -5.715093 -11.757632 0.000000 0.000000 0.000000 -18.360566 -40.146220 -47.046104 -0.000060 -56.855458 -0.000073 0.000000 0.000000 0.000000 3.979512 -0.739448 -2.101519 -4.126465 21.353058 -2.025800 0.000000 0.000000 0.000000 -21.913711 29.410767 24.489285 179.999991 72.353601 -179.999978 0.000000 0.000000 0.000000 
-33.515759 38.107529 281.240936 0.000000 0.000000 0.000000 -170.051712 13.648935 -177.629424 -88.571455 -9.211240 47.090418 102.031470 -14.454069 -10.911978 4.921493 -8.805628 7.679121 -0.465206 -0.000003 -0.000003 0.000000 0.000000 0.000000 -170.051712 13.648935 -177.629424 -90.552879 26.000445 -31.988122 105.384512 11.876020 12.001465 2.768842 2.012047 -8.069385 -0.707368 -0.000020 0.000002 0.000000 0.000000 0.000000 -170.051712 13.648935 -177.629424 16.795457 -3.775862 -8.576250 3.953005 -0.732008 -2.129828 0.000000 0.000000 0.000000 0.000000 0.000000 0.000000 3.963044 -0.728878 -2.113284 0.909233 0.164212 0.204963 -20.937819 -2.917530 8.648821 0.000000 0.000000 0.000000 3.963044 -0.728878 -2.113284 1.385788 -5.726411 -11.728821 0.000000 0.000000 0.000000 -18.401739 -40.104286 -47.092792 0.000009 -56.770763 0.000022 0.000000 0.000000 0.000000 3.963044 -0.728878 -2.113284 -4.382717 20.715691 -2.732457 0.000000 0.000000 0.000000 -23.680771 29.747875 24.695012 179.999991 71.448130 -179.999991 0.000000 0.000000 0.000000 
-33.508911 38.113190 281.237732 0.000000 0.000000 0.000000 -170.095384 13.666214 -177.646322 -88.595231 -9.279580 47.061434 102.035370 -14.462133 -10.902120 4.913287 -8.762626 7.606897 -0.461288 -0.000008 -0.000001 0.000000 0.000000 0.000000 -170.095384 13.666214 -177.646322 -90.596121 25.932640 -31.981859 105.363782 11.876627 12.013767 2.764916 2.010510 -8.103704 -0.708491 0.000013 -0.000006 0.000000 0.000000 0.000000 -170.095384 13.666214 -177.646322 16.773988 -3.766660 -8.544426 3.936249 -0.726286 -2.133477 0.000000 0.000000 0.000000 0.000000 0.000000 0.000000 3.946132 -0.719994 -2.117365 0.903846 0.149313 0.259420 -21.909468 -3.057864 8.701505 0.000000 0.000000 0.000000 3.946132 -0.719994 -2.117365 1.383559 -5.752322 -11.707937 0.000000 0.000000 0.000000 -18.417704 -40.033839 -47.130744 -0.000005 -56.739847 0.000009 0.000000 0.000000 0.000000 3.946132 -0.719994 -2.117365 -4.607653 20.141307 -3.226563 0.000000 0.000000 0.000000 -25.254303 30.109318 24.691901 179.999991 70.810572 180.000005 0.000000 0.000000 0.000000 
-33.497547 38.113419 281.234283 0.000000 0.000000 0.000000 -170.131270 13.680593 -177.658521 -88.610756 -9.338539 47.030856 102.039570 -14.468642 -10.892894 4.887996 -8.719351 7.576552 -0.461242 -0.000008 0.000003 0.000000 0.000000 0.000000 -170.131270 13.680593 -177.658521 -90.622759 25.889170 -32.015033 105.355156 11.908016 12.039736 2.756519 2.011308 -8.101865 -0.709448 -0.000011 0.000001 0.000000 0.000000 0.000000 -170.131270 13.680593 -177.658521 16.723892 -3.762957 -8.492545 3.916778 -0.723958 -2.135150 0.000000 0.000000 0.000000 0.000000 0.000000 0.000000 3.926630 -0.716450 -2.119209 0.892067 0.138524 0.310170 -22.891044 -3.147285 8.763345 0.000000 0.000000 0.000000 3.926630 -0.716450 -2.119209 1.380647 -5.788629 -11.682019 0.000000 0.000000 0.000000 -18.393602 -39.973392 -47.156391 0.000036 -56.711354 0.000036 0.000000 0.000000 0.000000 3.926630 -0.716450 -2.119209 -4.867072 19.612531 -3.735025 0.000000 0.000000 0.000000 -26.682767 30.496214 24.731861 180.000005 70.312467 -179.999991 0.000000 0.000000 0.000000 
-33.500122 38.123329 281.232483 0.000000 0.000000 0.000000 -170.244077 13.711501 -177.699898 -88.720592 -9.443153 47.005502 102.050908 -14.470703 -10.882567 4.885384 -8.675156 7.554622 -0.475824 -0.000002 -0.000001 0.000000 0.000000 0.000000 -170.244077 13.711501 -177.699898 -90.730758 25.767633 -31.975524 105.316995 11.899738 12.052507 2.747739 2.007142 -8.146669 -0.710300 0.000016 -0.000000 0.000000 0.000000 0.000000 -170.244077 13.711501 -177.699898 16.655020 -3.763021 -8.432729 3.896368 -0.724739 -2.135319 0.000000 0.000000 0.000000 0.000000 0.000000 0.000000 3.906194 -0.716054 -2.119340 0.874058 0.130486 0.353804 -23.736873 -3.216744 8.766212 0.000000 0.000000 0.000000 3.906194 -0.716054 -2.119340 1.382999 -5.816931 -11.640307 0.000000 0.000000 0.000000 -18.324796 -39.978552 -47.169153 0.000009 -56.633176 -0.000019 0.000000 0.000000 0.000000 3.906194 -0.716054 -2.119340 -5.111823 19.128718 -4.298377 0.000000 0.000000 0.000000 -28.006656 30.826099 24.873459 -179.999991 69.945385 179.999991 0.000000 0.000000 0.000000 
-33.504292 38.130028 281.227417 0.000000 0.000000 0.000000 -170.309087 13.714530 -177.728366 -88.785342 -9.513313 46.972471 102.060587 -14.476996 -10.873647 4.874158 -8.632497 7.496259 -0.500298 -0.000004 -0.000003 0.000000 0.000000 0.000000 -170.309087 13.714530 -177.728366 -90.761569 25.705403 -31.988515 105.290658 11.910377 12.068723 2.737013 2.001627 -8.157969 -0.711508 0.000020 -0.000002 0.000000 0.000000 0.000000 -170.309087 13.714530 -177.728366 16.601926 -3.788125 -8.376635 3.878887 -0.732313 -2.134467 0.000000 0.000000 0.000000 0.000000 0.000000 0.000000 3.888968 -0.722529 -2.118298 0.855352 0.122781 0.391979 -24.468068 -3.287824 8.717434 0.000000 0.000000 0.000000 3.888968 -0.722529 -2.118298 1.396339 -5.822758 -11.591360 0.000000 0.000000 0.000000 -18.228008 -40.018153 -47.167985 -0.000019 -56.503566 -0.000019 0.000000 0.000000 0.000000 3.888968 -0.722529 -2.118298 -5.339018 18.694212 -4.882523 0.000000 0.000000 0.000000 -29.250794 31.095771 25.087934 -179.999991 69.676433 179.999991 0.000000 0.000000 0.000000 
-33.507290 38.138100 281.222870 0.000000 0.000000 0.000000 -170.347336 13.724700 -177.757640 -88.821713 -9.563689 46.936469 102.070074 -14.481603 -10.860614 4.862609 -8.592754 7.484853 -0.498132 0.000010 -0.000001 0.000000 0.000000 0.000000 -170.347336 13.724700 -177.757640 -90.774409 25.636374 -31.991988 105.271622 11.909785 12.076401 2.728543 1.990386 -8.177227 -0.713048 0.000019 0.000004 0.000000 0.000000 0.000000 -170.347336 13.724700 -177.757640 16.548367 -3.837324 -8.322043 3.861886 -0.746663 -2.133064 0.000000 0.000000 0.000000 0.000000 0.000000 0.000000 3.872395 -0.735073 -2.116611 0.838849 0.113116 0.425595 -25.169203 -3.405255 8.675076 0.000000 0.000000 0.000000 3.872395 -0.735073 -2.116611 1.411818 -5.818802 -11.549830 0.000000 0.000000 0.000000 -18.123022 -40.048541 -47.157849 -0.000005 -56.337490 0.000022 0.000000 0.000000 0.000000 3.872395 -0.735073 -2.116611 -5.581655 18.306220 -5.408075 0.000000 0.000000 0.000000 -30.424962 31.323787 25.328537 179.999964 69.498322 -179.999964 0.000000 0.000000 0.000000 
-33.510365 38.140022 281.217468 0.000000 0.000000 0.000000 -170.383481 13.707202 -177.776956 -88.880616 -9.597077 46.883996 102.078325 -14.485520 -10.848528 4.859625 -8.554855 7.469462 -0.473192 0.000004 -0.000001 0.000000 0.000000 0.000000 -170.383481 13.707202 -177.776956 -90.756453 25.616153 -32.027891 105.265660 11.940340 12.092771 2.691574 1.966104 -8.153300 -0.714840 0.000022 -0.000001 0.000000 0.000000 0.000000 -170.383481 13.707202 -177.776956 16.461220 -3.860256 -8.262413 3.837517 -0.757861 -2.131590 0.000000 0.000000 0.000000 0.000000 0.000000 0.000000 3.848325 -0.745020 -2.114813 0.821635 0.096768 0.451033 -25.848637 -3.606678 8.637416 0.000000 0.000000 0.000000 3.848325 -0.745020 -2.114813 1.421334 -5.832056 -11.524359 0.000000 0.000000 0.000000 -18.013657 -40.082992 -47.146190 -0.000032 -56.142632 -0.000019 0.000000 0.000000 0.000000 3.848325 -0.745020 -2.114813 -5.843897 17.930165 -5.879750 0.000000 0.000000 0.000000 -31.525759 31.461176 25.621025 179.999964 69.389005 -179.999964 0.000000 0.000000 0.000000 
-33.516651 38.139481 281.200043 0.000000 0.000000 0.000000 -170.468298 13.698138 -177.816366 -89.008676 -9.683635 46.852209 102.103494 -14.508753 -10.833724 4.866114 -8.504415 7.446100 -0.466175 0.000000 -0.000003 0.000000 0.000000 0.000000 -170.468298 13.698138 -177.816366 -90.784552 25.582120 -32.031507 105.251726 11.951399 12.117900 2.668929 1.956723 -8.157519 -0.716746 -0.000012 0.000001 0.000000 0.000000 0.000000 -170.468298 13.698138 -177.816366 16.369942 -3.853362 -8.210028 3.808288 -0.759803 -2.130518 0.000000 0.000000 0.000000 0.000000 0.000000 0.000000 3.819111 -0.747462 -2.113439 0.799351 0.076281 0.469652 -26.512378 -3.829110 8.565506 0.000000 0.000000 0.000000 3.819111 -0.747462 -2.113439 1.427678 -5.860083 -11.507416 0.000000 0.000000 0.000000 -17.910236 -40.131903 -47.135924 -0.000019 -55.938204 0.000009 0.000000 0.000000 0.000000 3.819111 -0.747462 -2.113439 -6.123195 17.547096 -6.333289 0.000000 0.000000 0.000000 -32.524060 31.486113 25.944772 -180.000005 69.298526 179.999991 0.000000 0.000000 0.000000 
-33.525379 38.143654 281.194885 0.000000 0.000000 0.000000 -170.496193 13.681509 -177.837512 -89.080181 -9.691799 46.795368 102.114928 -14.516416 -10.811040 4.889063 -8.453749 7.451217 -0.474696 -0.000014 -0.000003 0.000000 0.000000 0.000000 -170.496193 13.681509 -177.837512 -90.761275 25.574291 -32.045724 105.237506 11.941305 12.127951 2.649722 1.954609 -8.142304 -0.718680 -0.000018 -0.000002 0.000000 0.000000 0.000000 -170.496193 13.681509 -177.837512 16.315690 -3.851267 -8.172589 3.782400 -0.758521 -2.130323 0.000000 0.000000 0.000000 0.000000 0.000000 0.000000 3.793170 -0.747064 -2.113020 0.770307 0.058955 0.487428 -27.204754 -3.995732 8.463824 0.000000 0.000000 0.000000 3.793170 -0.747064 -2.113020 1.435489 -5.876728 -11.485070 0.000000 0.000000 0.000000 -17.838880 -40.167622 -47.137195 0.000022 -55.750306 0.000022 0.000000 0.000000 0.000000 3.793170 -0.747064 -2.113020 -6.429373 17.163499 -6.746811 0.000000 0.000000 0.000000 -33.405656 31.462505 26.230618 -179.999991 69.224514 179.999991 0.000000 0.000000 0.000000 
-33.531628 38.144989 281.188019 0.000000 0.000000 0.000000 -170.513023 13.667524 -177.855244 -89.135471 -9.702977 46.746201 102.123616 -14.530406 -10.789927 4.880881 -8.409035 7.427137 -0.479248 0.000004 0.000000 0.000000 0.000000 0.000000 -170.513023 13.667524 -177.855244 -90.736256 25.572860 -32.051475 105.232076 11.943560 12.133014 2.617320 1.948905 -8.117507 -0.720535 -0.000003 0.000004 0.000000 0.000000 0.000000 -170.513023 13.667524 -177.855244 16.271532 -3.863909 -8.146608 3.756943 -0.758015 -2.131484 0.000000 0.000000 0.000000 0.000000 0.000000 0.000000 3.767744 -0.747027 -2.114089 0.736198 0.044863 0.504619 -27.892114 -4.123557 8.333845 0.000000 0.000000 0.000000 3.767744 -0.747027 -2.114089 1.447106 -5.891189 -11.461600 0.000000 0.000000 0.000000 -17.788155 -40.168923 -47.144793 -0.000046 -55.599488 -0.000046 0.000000 0.000000 0.000000 3.767744 -0.747027 -2.114089 -6.765032 16.773410 -7.110201 0.000000 0.000000 0.000000 -34.210464 31.432312 26.522309 179.999964 69.193976 -179.999964 0.000000 0.000000 0.000000 
